<svg xmlns="http://www.w3.org/2000/svg" xmlns:xlink="http://www.w3.org/1999/xlink" viewBox="0 0 1397.5 2533"><defs><style>.cls-1{fill:none;}.cls-2{clip-path:url(#clip-path);}.cls-3{fill:url(#Degradado_sin_nombre_22);}</style><clipPath id="clip-path" transform="translate(-0.5 -420)"><rect class="cls-1" width="1920" height="1084"/></clipPath><linearGradient id="Degradado_sin_nombre_22" x1="1127.81" y1="2459.95" x2="-474.74" y2="912.39" gradientUnits="userSpaceOnUse"><stop offset="0" stop-color="#e7e7e7" stop-opacity="0.8"/><stop offset="0.46" stop-color="#e7e7e7" stop-opacity="0.8"/><stop offset="0.53" stop-color="#e7e7e7" stop-opacity="0.8"/><stop offset="0.53" stop-color="#e5e6e6" stop-opacity="0.8"/><stop offset="0.54" stop-color="#dce1e4" stop-opacity="0.81"/><stop offset="0.54" stop-color="#cddae1" stop-opacity="0.82"/><stop offset="0.54" stop-color="#b8cfdc" stop-opacity="0.84"/><stop offset="0.54" stop-color="#9dc1d6" stop-opacity="0.86"/><stop offset="0.54" stop-color="#7bb0ce" stop-opacity="0.89"/><stop offset="0.54" stop-color="#529bc4" stop-opacity="0.93"/><stop offset="0.54" stop-color="#2584ba" stop-opacity="0.97"/><stop offset="0.54" stop-color="#0071b1"/><stop offset="0.6" stop-color="#0071b1"/><stop offset="1" stop-color="#0071b1"/></linearGradient></defs><g id="Capa_2" data-name="Capa 2"><g id="Capa_1-2" data-name="Capa 1"><g class="cls-2"><path class="cls-3" d="M.5,420.27s336.69-.55,632.76-.08c24.61,0,44.54,20.69,44.54,46.15v695.07c0,25.47,20,46.13,44.59,46.14l631,.43c24.63,0,44.59,20.67,44.59,46.14v683.19c0,25.47-20,46.12-44.59,46.14l-631,.58c-24.63,0-44.58,20.68-44.58,46.15v876.68c0,25.48-20,46.14-44.62,46.14H3.18" transform="translate(-0.5 -420)"/></g></g></g></svg>